HIERARCHY
ROOT Model
{
	OFFSET 0 0 0
	CHANNELS 6 Xposition Yposition Zposition Zrotation Xrotation Yrotation
	JOINT Model1
	{
		OFFSET 0 -2.25479 2.99384
		CHANNELS 3 Zrotation Xrotation Yrotation
		JOINT Model2
		{
			OFFSET 12.111 0 0
			CHANNELS 3 Zrotation Xrotation Yrotation
			JOINT Model3
			{
				OFFSET 11.5502 0 0
				CHANNELS 3 Zrotation Xrotation Yrotation
				JOINT Model4
				{
					OFFSET 11.781 0 0
					CHANNELS 3 Zrotation Xrotation Yrotation
					JOINT Model5
					{
						OFFSET 20.0601 0 0
						CHANNELS 3 Zrotation Xrotation Yrotation
						JOINT Model6
						{
							OFFSET 11.1962 0 0
							CHANNELS 3 Zrotation Xrotation Yrotation
							End Site
							{
								OFFSET 0 0 0
							}
						}
					}
					JOINT Model7
					{
						OFFSET 10.8223 0.417534 3.51114
						CHANNELS 3 Zrotation Xrotation Yrotation
						JOINT Model8
						{
							OFFSET -6.07943 0 0
							CHANNELS 3 Zrotation Xrotation Yrotation
							JOINT Model9
							{
								OFFSET -0.277412 10.39 -0.051239
								CHANNELS 3 Zrotation Xrotation Yrotation
								JOINT Model10
								{
									OFFSET -3.4391 -0.282043 1.86678
									CHANNELS 3 Zrotation Xrotation Yrotation
									JOINT Model11
									{
										OFFSET 13.0269 0 0
										CHANNELS 3 Zrotation Xrotation Yrotation
										JOINT Model12
										{
											OFFSET 10.8866 0 0
											CHANNELS 3 Zrotation Xrotation Yrotation
											JOINT Model13
											{
												OFFSET 16.7317 0 0
												CHANNELS 3 Zrotation Xrotation Yrotation
												JOINT Model14
												{
													OFFSET 11.8292 0 0
													CHANNELS 3 Zrotation Xrotation Yrotation
													JOINT Model15
													{
														OFFSET 4.82751 -3.73566 -0.836517
														CHANNELS 3 Zrotation Xrotation Yrotation
														JOINT Model16
														{
															OFFSET 3.75311 -0.0582886 -0.0186462
															CHANNELS 3 Zrotation Xrotation Yrotation
															JOINT Model17
															{
																OFFSET 2.88689 0.0192337 0.014801
																CHANNELS 3 Zrotation Xrotation Yrotation
																End Site
																{
																	OFFSET 0 0 0
																}
															}
														}
													}
													JOINT Model18
													{
														OFFSET 9.72197 -3.06458 0.23877
														CHANNELS 3 Zrotation Xrotation Yrotation
														JOINT Model19
														{
															OFFSET 4.61131 0 0
															CHANNELS 3 Zrotation Xrotation Yrotation
															JOINT Model20
															{
																OFFSET 2.8969 -7.62939e-006 0
																CHANNELS 3 Zrotation Xrotation Yrotation
																End Site
																{
																	OFFSET 0 0 0
																}
															}
														}
													}
													JOINT Model21
													{
														OFFSET 9.54431 -0.745064 0.588943
														CHANNELS 3 Zrotation Xrotation Yrotation
														JOINT Model22
														{
															OFFSET 5.33978 0 0
															CHANNELS 3 Zrotation Xrotation Yrotation
															JOINT Model23
															{
																OFFSET 3.03619 7.62939e-006 0
																CHANNELS 3 Zrotation Xrotation Yrotation
																End Site
																{
																	OFFSET 0 0 0
																}
															}
														}
													}
													JOINT Model24
													{
														OFFSET 9.47758 1.51286 0.485123
														CHANNELS 3 Zrotation Xrotation Yrotation
														JOINT Model25
														{
															OFFSET 4.96136 7.62939e-006 0
															CHANNELS 3 Zrotation Xrotation Yrotation
															JOINT Model26
															{
																OFFSET 2.51965 0 0
																CHANNELS 3 Zrotation Xrotation Yrotation
																End Site
																{
																	OFFSET 0 0 0
																}
															}
														}
													}
													JOINT Model27
													{
														OFFSET 9.34247 3.34117 -0.239273
														CHANNELS 3 Zrotation Xrotation Yrotation
														JOINT Model28
														{
															OFFSET 3.28259 2.28882e-005 0
															CHANNELS 3 Zrotation Xrotation Yrotation
															JOINT Model29
															{
																OFFSET 2.1292 0 0
																CHANNELS 3 Zrotation Xrotation Yrotation
																End Site
																{
																	OFFSET 0 0 0
																}
															}
														}
													}
												}
											}
										}
									}
								}
							}
						}
					}
					JOINT Model30
					{
						OFFSET 10.8223 0.4179 -3.51106
						CHANNELS 3 Zrotation Xrotation Yrotation
						JOINT Model31
						{
							OFFSET 6.07943 0 0
							CHANNELS 3 Zrotation Xrotation Yrotation
							JOINT Model32
							{
								OFFSET 0.277412 -10.39 0.051239
								CHANNELS 3 Zrotation Xrotation Yrotation
								JOINT Model33
								{
									OFFSET 3.4391 0.282043 -1.86678
									CHANNELS 3 Zrotation Xrotation Yrotation
									JOINT Model34
									{
										OFFSET -13.0269 0 0
										CHANNELS 3 Zrotation Xrotation Yrotation
										JOINT Model35
										{
											OFFSET -10.8866 0 0
											CHANNELS 3 Zrotation Xrotation Yrotation
											JOINT Model36
											{
												OFFSET -16.7317 0 0
												CHANNELS 3 Zrotation Xrotation Yrotation
												JOINT Model37
												{
													OFFSET -11.8292 0 0
													CHANNELS 3 Zrotation Xrotation Yrotation
													JOINT Model38
													{
														OFFSET -4.82751 3.73566 0.836517
														CHANNELS 3 Zrotation Xrotation Yrotation
														JOINT Model39
														{
															OFFSET -3.75311 0.0582886 0.0186462
															CHANNELS 3 Zrotation Xrotation Yrotation
															JOINT Model40
															{
																OFFSET -2.88688 -0.0192337 -0.014801
																CHANNELS 3 Zrotation Xrotation Yrotation
																End Site
																{
																	OFFSET 0 0 0
																}
															}
														}
													}
													JOINT Model41
													{
														OFFSET -9.72197 3.06459 -0.23877
														CHANNELS 3 Zrotation Xrotation Yrotation
														JOINT Model42
														{
															OFFSET -4.6113 0 0
															CHANNELS 3 Zrotation Xrotation Yrotation
															JOINT Model43
															{
																OFFSET -2.8969 0 0
																CHANNELS 3 Zrotation Xrotation Yrotation
																End Site
																{
																	OFFSET 0 0 0
																}
															}
														}
													}
													JOINT Model44
													{
														OFFSET -9.5443 0.745064 -0.588943
														CHANNELS 3 Zrotation Xrotation Yrotation
														JOINT Model45
														{
															OFFSET -5.33978 0 0
															CHANNELS 3 Zrotation Xrotation Yrotation
															JOINT Model46
															{
																OFFSET -3.03619 -1.52588e-005 0
																CHANNELS 3 Zrotation Xrotation Yrotation
																End Site
																{
																	OFFSET 0 0 0
																}
															}
														}
													}
													JOINT Model47
													{
														OFFSET -9.47759 -1.51286 -0.485123
														CHANNELS 3 Zrotation Xrotation Yrotation
														JOINT Model48
														{
															OFFSET -4.96136 -1.52588e-005 0
															CHANNELS 3 Zrotation Xrotation Yrotation
															JOINT Model49
															{
																OFFSET -2.51966 0 0
																CHANNELS 3 Zrotation Xrotation Yrotation
																End Site
																{
																	OFFSET 0 0 0
																}
															}
														}
													}
													JOINT Model50
													{
														OFFSET -9.34246 -3.34118 0.239273
														CHANNELS 3 Zrotation Xrotation Yrotation
														JOINT Model51
														{
															OFFSET -3.2826 -2.28882e-005 0
															CHANNELS 3 Zrotation Xrotation Yrotation
															JOINT Model52
															{
																OFFSET -2.1292 0 0
																CHANNELS 3 Zrotation Xrotation Yrotation
																End Site
																{
																	OFFSET 0 0 0
																}
															}
														}
													}
												}
											}
										}
									}
								}
							}
						}
					}
				}
			}
		}
	}
	JOINT Model53
	{
		OFFSET 4.38026 -2.14632 -1.11516
		CHANNELS 3 Zrotation Xrotation Yrotation
		JOINT Model54
		{
			OFFSET 0 0 4.95
			CHANNELS 3 Zrotation Xrotation Yrotation
			JOINT Model55
			{
				OFFSET 18.5642 0 0
				CHANNELS 3 Zrotation Xrotation Yrotation
				JOINT Model56
				{
					OFFSET 21.2884 0 1.52588e-005
					CHANNELS 3 Zrotation Xrotation Yrotation
					JOINT Model57
					{
						OFFSET 30.261 0 0
						CHANNELS 3 Zrotation Xrotation Yrotation
						JOINT Model58
						{
							OFFSET 11.7259 0 0
							CHANNELS 3 Zrotation Xrotation Yrotation
							JOINT Model59
							{
								OFFSET 10.682 0 0
								CHANNELS 3 Zrotation Xrotation Yrotation
								End Site
								{
									OFFSET 0 0 0
								}
							}
						}
					}
				}
			}
		}
	}
	JOINT Model60
	{
		OFFSET -4.38026 -2.14632 -1.11516
		CHANNELS 3 Zrotation Xrotation Yrotation
		JOINT Model61
		{
			OFFSET 0 0 -4.95
			CHANNELS 3 Zrotation Xrotation Yrotation
			JOINT Model62
			{
				OFFSET -18.5642 0 0
				CHANNELS 3 Zrotation Xrotation Yrotation
				JOINT Model63
				{
					OFFSET -21.2884 0 -1.52588e-005
					CHANNELS 3 Zrotation Xrotation Yrotation
					JOINT Model64
					{
						OFFSET -30.261 0 0
						CHANNELS 3 Zrotation Xrotation Yrotation
						JOINT Model65
						{
							OFFSET -11.7259 0 0
							CHANNELS 3 Zrotation Xrotation Yrotation
							JOINT Model66
							{
								OFFSET -10.682 0 0
								CHANNELS 3 Zrotation Xrotation Yrotation
								End Site
								{
									OFFSET 0 0 0
								}
							}
						}
					}
				}
			}
		}
	}
}
MOTION
Frames: 5
Frame Time: 0.033333
99.566 120.662 -49.564 107.791 17.4061 81.6835 -180 4.29621e-031 -90 5.82229 -0.206376 -0.197625 11.644 -0.432175 -0.373297 11.644 -0.431747 -0.373385 21.7598 25.6198 -4.70741 -15.6465 25.8323 0.00159366 120.092 75.5343 58.4939 21.9565 7.50102 -2.43299 -167.277 84.4999 48.8109 110.359 -7.60823 29.3064 -8.59068e-007 19.7445 3.08349e-005 -2.37956 5.2785 -18.5135 1.09299e-006 8.2706 1.22111e-006 -10.3984 1.1242 -12.3089 -72.0648 39.0385 39.3397 33.3638 2.10362 14.835 0.588947 0.308273 6.35287 -99.6409 81.413 100.35 -0.0181409 2.78313e-005 -0.117315 -0.124139 0.00241119 -0.799296 -79.8382 79.5773 80.5374 -0.000225759 -0.000220869 2.21659e-005 -0.000956203 0.000122967 -2.73593e-005 -66.7416 80.4058 67.2171 -0.000437115 1.59983e-005 -2.73514e-005 -0.000136581 -0.000109219 -5.4683e-005 -6.42159 81.2158 8.01779 -0.000218554 1.69509e-005 0.0002121 0.000901601 -0.000184744 -0.000218621 -59.9282 75.5373 58.5147 14.8603 -3.86211 -2.83847 -167.277 84.4999 48.8109 115.725 -16.4141 34.491 3.13317e-006 6.23582 3.11398e-005 -23.0799 31.2434 -0.111505 -1.57426e-005 46.4707 8.67267e-006 -4.16052 0.470381 -12.9324 -72.0648 39.0385 39.3397 33.3638 2.10361 14.835 0.588946 0.308273 6.35287 -99.6409 81.413 100.35 -0.0181409 3.00904e-005 -0.117315 -0.124139 0.00241115 -0.799296 -79.8382 79.5773 80.5374 -0.000260649 -0.000218554 2.35809e-005 -0.00095623 0.000123013 -2.73064e-005 -66.7416 80.4058 67.2171 -0.000437134 1.48936e-005 -2.73104e-005 -0.000136607 -0.000109266 -5.46273e-005 -6.42159 81.2158 8.01779 -0.000218568 1.95905e-005 0.000212305 0.00090158 -0.000191229 -0.000218554 0.000811311 0.56661 89.91 -85.2101 6.71567 -49.4534 -3.34756e-006 -7.11183 -2.8022e-007 63.7804 11.1947 -0.00773043 4.26345e-007 16.6829 4.73373e-007 -10.9343 -5.56826 10.5991 -35.4947 5.44615e-007 1.51116e-007 -180 -0.566579 -90.09 -95.5164 9.46831 -29.5605 7.13632e-008 0.0972259 -2.74955e-010 80.8969 -0.0589356 -0.00762861 4.04211e-007 -0.209857 9.59351e-008 -26.4622 6.49287 -6.55647 -35.4947 -1.04952e-007 -7.94761e-008 
99.4009 120.707 -49.486 107.781 17.5024 81.7863 -180 4.29621e-031 -90 5.87901 -0.208446 -0.19473 11.7574 -0.436172 -0.367091 11.7574 -0.435744 -0.36718 20.9221 25.1804 -4.88293 -15.7078 25.1312 0.982074 120.092 75.5343 58.4939 21.6811 6.72803 -2.46121 -167.277 84.4999 48.8109 111.349 -8.73694 29.0819 3.95724e-007 17.5206 3.04339e-005 -2.58634 6.4928 -18.6945 1.05156e-006 10.1844 1.22776e-006 -10.6846 1.18786 -12.6503 -72.0648 39.0385 39.3397 33.3638 2.10362 14.835 0.588947 0.308273 6.35287 -99.6409 81.413 100.35 -0.0181409 2.78313e-005 -0.117315 -0.124139 0.00241119 -0.799296 -79.8382 79.5773 80.5374 -0.000225759 -0.000220869 2.21659e-005 -0.000956203 0.000122967 -2.73593e-005 -66.7416 80.4058 67.2171 -0.000437115 1.59983e-005 -2.73514e-005 -0.000136581 -0.000109219 -5.4683e-005 -6.42159 81.2158 8.01779 -0.000218554 1.69509e-005 0.0002121 0.000901601 -0.000184744 -0.000218621 -59.9282 75.5373 58.5147 14.7235 -4.07492 -2.85932 -167.277 84.4999 48.8109 118.145 -14.6967 34.0327 2.21784e-006 7.90421 3.12525e-005 -30.9006 30.1844 0.304877 -1.53817e-005 44.7779 8.41467e-006 -3.14232 0.255441 -8.96451 -72.0648 39.0385 39.3397 33.3638 2.10361 14.835 0.588946 0.308273 6.35287 -99.6409 81.413 100.35 -0.0181409 3.00904e-005 -0.117315 -0.124139 0.00241115 -0.799296 -79.8382 79.5773 80.5374 -0.000260649 -0.000218554 2.35809e-005 -0.00095623 0.000123013 -2.73064e-005 -66.7416 80.4058 67.2171 -0.000437134 1.48936e-005 -2.73104e-005 -0.000136607 -0.000109266 -5.46273e-005 -6.42159 81.2158 8.01779 -0.000218568 1.95905e-005 0.000212305 0.00090158 -0.000191229 -0.000218554 0.000811311 0.56661 89.91 -85.1842 6.64921 -49.2847 -3.34763e-006 -7.12575 -2.80228e-007 63.3861 11.2262 -0.00773127 4.25934e-007 16.7305 4.73491e-007 -10.6665 -5.47351 10.5213 -35.4947 5.44615e-007 1.51116e-007 -180 -0.566579 -90.09 -95.9576 9.62717 -29.5446 7.13635e-008 0.154304 -2.74955e-010 81.7045 -0.261277 -0.00762868 4.0472e-007 -0.513645 9.59383e-008 -28.9719 6.07256 -5.91326 -35.4947 -1.04952e-007 -7.94761e-008 
99.2428 120.812 -49.42 107.795 17.4489 81.9969 -180 4.29621e-031 -90 5.93674 -0.17808 -0.154201 11.8731 -0.371594 -0.289168 11.8731 -0.371167 -0.289258 19.8587 24.8084 -5.01809 -15.8962 24.6555 1.09584 120.092 75.5343 58.4939 21.4384 6.21216 -2.46897 -167.277 84.4999 48.8109 111.894 -8.95246 28.7955 7.64151e-007 16.8567 3.0325e-005 -2.29299 6.93503 -18.6809 1.03624e-006 10.8864 1.23056e-006 -10.9767 1.26153 -13.071 -72.0648 39.0385 39.3397 33.3638 2.10362 14.835 0.588947 0.308273 6.35287 -99.6409 81.413 100.35 -0.0181409 2.78313e-005 -0.117315 -0.124139 0.00241119 -0.799296 -79.8382 79.5773 80.5374 -0.000225759 -0.000220869 2.21659e-005 -0.000956203 0.000122967 -2.73593e-005 -66.7416 80.4058 67.2171 -0.000437115 1.59983e-005 -2.73514e-005 -0.000136581 -0.000109219 -5.4683e-005 -6.42159 81.2158 8.01779 -0.000218554 1.69509e-005 0.0002121 0.000901601 -0.000184744 -0.000218621 -59.9282 75.5373 58.5147 14.6995 -4.2761 -2.89259 -167.277 84.4999 48.8109 119.47 -12.949 33.06 1.15215e-006 9.82964 3.14167e-005 -38.5333 26.6672 0.432308 -1.43642e-005 39.4182 7.73184e-006 -1.22203 0.0610873 -5.62117 -72.0648 39.0385 39.3397 33.3638 2.10361 14.835 0.588946 0.308273 6.35287 -99.6409 81.413 100.35 -0.0181409 3.00904e-005 -0.117315 -0.124139 0.00241115 -0.799296 -79.8382 79.5773 80.5374 -0.000260649 -0.000218554 2.35809e-005 -0.00095623 0.000123013 -2.73064e-005 -66.7416 80.4058 67.2171 -0.000437134 1.48936e-005 -2.73104e-005 -0.000136607 -0.000109266 -5.46273e-005 -6.42159 81.2158 8.01779 -0.000218568 1.95905e-005 0.000212305 0.00090158 -0.000191229 -0.000218554 0.000811311 0.56661 89.91 -85.1147 6.63058 -49.2961 -3.34754e-006 -7.10795 -2.80217e-007 63.0849 11.2447 -0.00773177 4.25691e-007 16.7586 4.73561e-007 -10.6472 -5.27326 10.2218 -35.4947 5.44615e-007 1.51116e-007 -180 -0.566579 -90.09 -96.6318 9.7648 -29.172 7.1364e-008 0.263676 -2.74957e-010 82.9231 -0.408716 -0.0076288 4.05091e-007 -0.73517 9.59424e-008 -32.2192 5.95181 -5.60746 -35.4947 -1.04952e-007 -7.94761e-008 
99.1055 120.94 -49.422 107.488 17.4371 82.1926 -180 4.29621e-031 -90 5.8836 -0.11711 -0.146113 11.7669 -0.249009 -0.279431 11.7669 -0.248581 -0.27952 19.1793 24.4968 -4.70995 -16.6341 24.4683 0.319549 120.092 75.5343 58.4939 21.6238 6.30116 -2.49847 -167.277 84.4999 48.8109 112.184 -8.97118 28.8238 8.22854e-007 16.7505 3.0308e-005 -2.14577 6.95966 -18.6584 1.03534e-006 10.9273 1.23073e-006 -11.3214 1.27964 -12.8611 -72.0648 39.0385 39.3397 33.3638 2.10362 14.835 0.588947 0.308273 6.35287 -99.6409 81.413 100.35 -0.0181409 2.78313e-005 -0.117315 -0.124139 0.00241119 -0.799296 -79.8382 79.5773 80.5374 -0.000225759 -0.000220869 2.21659e-005 -0.000956203 0.000122967 -2.73593e-005 -66.7416 80.4058 67.2171 -0.000437115 1.59983e-005 -2.73514e-005 -0.000136581 -0.000109219 -5.4683e-005 -6.42159 81.2158 8.01779 -0.000218554 1.69509e-005 0.0002121 0.000901601 -0.000184744 -0.000218621 -59.9282 75.5373 58.5147 14.8167 -4.36259 -2.92237 -167.277 84.4999 48.8109 119.79 -11.9623 32.0614 5.5622e-007 10.8969 3.15239e-005 -43.0723 22.9055 0.450147 -1.34441e-005 33.7387 7.18283e-006 0.411672 -0.0132331 -4.11116 -72.0648 39.0385 39.3397 33.3638 2.10361 14.835 0.588946 0.308273 6.35287 -99.6409 81.413 100.35 -0.0181409 3.00904e-005 -0.117315 -0.124139 0.00241115 -0.799296 -79.8382 79.5773 80.5374 -0.000260649 -0.000218554 2.35809e-005 -0.00095623 0.000123013 -2.73064e-005 -66.7416 80.4058 67.2171 -0.000437134 1.48936e-005 -2.73104e-005 -0.000136607 -0.000109266 -5.46273e-005 -6.42159 81.2158 8.01779 -0.000218568 1.95905e-005 0.000212305 0.00090158 -0.000191229 -0.000218554 0.000811311 0.56661 89.91 -85.2109 6.58529 -49.3441 -3.34831e-006 -7.26509 -2.80314e-007 62.8377 11.1914 -0.00773034 4.26379e-007 16.6789 4.73363e-007 -10.6412 -5.33652 10.3195 -35.4947 5.44615e-007 1.51116e-007 -180 -0.566579 -90.09 -97.648 9.96899 -28.7727 7.13644e-008 0.348041 -2.74959e-010 84.1495 -0.534428 -0.00762894 4.05407e-007 -0.924051 9.5947e-008 -35.3618 6.22752 -5.71089 -35.4947 -1.04952e-007 -7.94761e-008 
99.0332 121.032 -49.523 106.977 17.5799 82.2082 -180 4.29621e-031 -90 5.76925 -0.0710434 -0.191122 11.5382 -0.161368 -0.37414 11.5382 -0.160939 -0.374228 18.3822 24.2966 -4.71888 -17.7316 24.1972 0.417887 120.092 75.5343 58.4939 22.0952 6.0401 -2.62733 -167.277 84.4999 48.8109 111.301 -8.32424 29.2531 -3.06835e-008 18.2828 3.0565e-005 -2.12236 6.06805 -18.5406 1.066e-006 9.5195 1.22529e-006 -11.5105 1.22667 -12.1236 -72.0648 39.0385 39.3397 33.3638 2.10362 14.835 0.588947 0.308273 6.35287 -99.6409 81.413 100.35 -0.0181409 2.78313e-005 -0.117315 -0.124139 0.00241119 -0.799296 -79.8382 79.5773 80.5374 -0.000225759 -0.000220869 2.21659e-005 -0.000956203 0.000122967 -2.73593e-005 -66.7416 80.4058 67.2171 -0.000437115 1.59983e-005 -2.73514e-005 -0.000136581 -0.000109219 -5.4683e-005 -6.42159 81.2158 8.01779 -0.000218554 1.69509e-005 0.0002121 0.000901601 -0.000184744 -0.000218621 -59.9282 75.5373 58.5147 15.5589 -4.1403 -2.97567 -167.277 84.4999 48.8109 119.645 -11.3996 31.7011 1.04797e-007 11.7004 3.16124e-005 -46.0339 17.4757 0.458498 -1.23134e-005 25.5753 6.62191e-006 2.41028 -0.124116 -5.4973 -72.0648 39.0385 39.3397 33.3638 2.10361 14.835 0.588946 0.308273 6.35287 -99.6409 81.413 100.35 -0.0181409 3.00904e-005 -0.117315 -0.124139 0.00241115 -0.799296 -79.8382 79.5773 80.5374 -0.000260649 -0.000218554 2.35809e-005 -0.00095623 0.000123013 -2.73064e-005 -66.7416 80.4058 67.2171 -0.000437134 1.48936e-005 -2.73104e-005 -0.000136607 -0.000109266 -5.46273e-005 -6.42159 81.2158 8.01779 -0.000218568 1.95905e-005 0.000212305 0.00090158 -0.000191229 -0.000218554 0.000811311 0.56661 89.91 -85.4752 6.52415 -49.1905 -3.34941e-006 -7.48696 -2.80455e-007 62.7935 11.1475 -0.00772917 4.26946e-007 16.6132 4.732e-007 -10.5744 -5.4651 10.5316 -35.4947 5.44615e-007 1.51116e-007 -180 -0.566579 -90.09 -98.6281 10.2681 -28.6388 7.13649e-008 0.454076 -2.74963e-010 84.928 -0.620652 -0.00762905 4.05624e-007 -1.05355 9.59507e-008 -37.4114 6.74269 -6.10082 -35.4947 -1.04952e-007 -7.94761e-008 
